<?xml version="1.0" standalone="no"?>
<!DOCTYPE svg PUBLIC "-//W3C//DTD SVG 20010904//EN"
 "http://www.w3.org/TR/2001/REC-SVG-20010904/DTD/svg10.dtd">
<svg version="1.0" xmlns="http://www.w3.org/2000/svg"
 width="500.000000pt" height="500.000000pt" viewBox="0 0 500.000000 500.000000"
 preserveAspectRatio="xMidYMid meet">
<metadata>
Created by potrace 1.14, written by Peter Selinger 2001-2017
</metadata>
<g transform="translate(0.000000,500.000000) scale(0.100000,-0.100000)"
fill="#000000" stroke="none">
<path d="M0 2500 l0 -2500 2500 0 2500 0 0 2500 0 2500 -2500 0 -2500 0 0
-2500z m2510 1752 c386 -91 703 -310 917 -634 159 -242 236 -502 236 -803 1
-305 -83 -575 -256 -828 l-60 -89 535 -536 c294 -295 540 -550 546 -565 48
-113 -60 -235 -186 -212 -32 6 -107 76 -578 547 l-541 540 -94 -62 c-297 -196
-598 -277 -926 -251 -473 39 -862 264 -1120 651 -228 341 -301 777 -197 1177
143 552 596 970 1164 1073 141 26 432 22 560 -8z"/>
<path d="M2035 3945 c-373 -58 -688 -285 -854 -613 -43 -84 -86 -218 -107
-327 -23 -127 -15 -333 20 -467 53 -205 152 -377 310 -533 109 -109 205 -174
333 -230 356 -154 750 -125 1078 81 93 58 274 232 329 316 132 204 196 414
196 642 0 309 -115 590 -330 806 -259 260 -622 381 -975 325z"/>
</g>
</svg>
